<svg width="29" height="25" viewBox="0 0 29 25" fill="none" xmlns="http://www.w3.org/2000/svg">
<path d="M27.058 5.18392C25.7635 3.58357 24.0049 2.31934 21.7825 1.39158C19.5601 0.463823 17.1325 0 14.5 0C11.8676 0 9.44007 0.463823 7.21762 1.39158C4.99517 2.31934 3.23666 3.58334 1.94199 5.18392C0.647254 6.78439 0 8.52857 0 10.4166C0 12.0442 0.488033 13.5692 1.4645 14.9906C2.44096 16.412 3.77588 17.6058 5.46988 18.5715C5.35108 19.0054 5.21085 19.4176 5.04896 19.8086C4.88713 20.1991 4.74152 20.5193 4.61206 20.769C4.48248 21.0183 4.30733 21.2952 4.08599 21.5987C3.86498 21.9027 3.69777 22.1171 3.58447 22.242C3.47127 22.3668 3.28518 22.5727 3.02609 22.8604C2.76734 23.1478 2.60001 23.3353 2.52457 23.4221C2.51363 23.4276 2.47055 23.4762 2.39505 23.5689C2.3196 23.6609 2.28174 23.7068 2.28174 23.7068L2.18464 23.8533C2.13063 23.9342 2.10636 23.9859 2.11169 24.0074C2.11713 24.0293 2.10636 24.0835 2.07938 24.1701C2.05235 24.2571 2.05512 24.3222 2.08743 24.3655V24.3819C2.13063 24.5663 2.21684 24.7156 2.3463 24.8295C2.47576 24.943 2.62166 25 2.78332 25H2.86432C3.56576 24.913 4.18065 24.794 4.70921 24.642C7.53595 23.9151 10.0174 22.6022 12.1535 20.7031C12.9626 20.7899 13.7448 20.8332 14.4999 20.8332C17.1323 20.8332 19.56 20.3695 21.7824 19.4414C24.0048 18.5135 25.7633 17.2498 27.0579 15.6494C28.3527 14.049 29 12.3047 29 10.4166C29.0001 8.5288 28.3528 6.78439 27.058 5.18392ZM25.2374 14.5672C24.1096 15.8474 22.5885 16.8648 20.6735 17.6188C18.7586 18.3727 16.7005 18.75 14.4996 18.75C13.8416 18.75 13.1404 18.7067 12.396 18.6197L11.4735 18.5223L10.7777 19.141C9.45084 20.313 7.96724 21.2406 6.32737 21.9242C6.82357 21.0455 7.20118 20.1122 7.46022 19.125L7.89713 17.5622L6.48925 16.7487C5.08671 15.9453 3.99989 14.9932 3.22833 13.8918C2.45689 12.7907 2.07134 11.6321 2.07134 10.4169C2.07134 8.93025 2.63504 7.54688 3.76239 6.26646C4.89008 4.98616 6.41109 3.96884 8.32615 3.21472C10.2412 2.46056 12.2989 2.08316 14.5 2.08316C16.7008 2.08316 18.7585 2.46038 20.6735 3.2145C22.5883 3.96867 24.1095 4.98593 25.2373 6.26623C26.3647 7.54665 26.9284 8.93008 26.9284 10.4166C26.9284 11.9031 26.3647 13.2868 25.2374 14.5672Z" fill="#5D60F0"/>
</svg>
