<svg width="39" height="39" viewBox="0 0 39 39" fill="none" xmlns="http://www.w3.org/2000/svg">
<rect width="39" height="39" rx="19.5" fill="#CCF9FF" fill-opacity="0.8"/>
<path d="M24.4244 11.9226H17.7043C17.5843 11.9226 17.4693 11.9703 17.3844 12.0551C17.2996 12.1399 17.252 12.255 17.252 12.3749V15.5781C17.252 15.698 17.2997 15.813 17.3845 15.8978C17.4693 15.9827 17.5843 16.0303 17.7043 16.0304H24.4244C24.5443 16.0304 24.6594 15.9827 24.7442 15.8979C24.829 15.8131 24.8767 15.698 24.8767 15.5781V12.3749C24.8767 12.3155 24.865 12.2567 24.8423 12.2018C24.8196 12.1469 24.7863 12.097 24.7443 12.055C24.7023 12.013 24.6524 11.9797 24.5975 11.957C24.5426 11.9342 24.4838 11.9226 24.4244 11.9226ZM23.9721 15.1247H18.1566V12.8272H23.9721V15.1247Z" fill="#1273EB"/>
<path d="M29.7773 25.9458L30.9067 24.4586C30.9577 24.3915 30.989 24.3115 30.9969 24.2276C31.0049 24.1437 30.9893 24.0593 30.9518 23.9838C30.9144 23.9083 30.8566 23.8448 30.7849 23.8004C30.7133 23.756 30.6307 23.7325 30.5464 23.7325H28.3236V9.45231C28.3236 9.33235 28.276 9.21731 28.1912 9.13248C28.1063 9.04765 27.9913 9 27.8713 9H13.2132C13.0933 9.00007 12.9783 9.04774 12.8935 9.13256C12.8087 9.21737 12.761 9.33237 12.7609 9.45231V11.9225H12.2923C12.1226 11.9225 11.9546 11.9559 11.7978 12.0208C11.641 12.0858 11.4985 12.181 11.3785 12.301C11.2585 12.421 11.1633 12.5635 11.0984 12.7202C11.0334 12.877 11 13.0451 11 13.2148C11 13.3845 11.0334 13.5526 11.0984 13.7093C11.1633 13.8661 11.2585 14.0086 11.3785 14.1286C11.4985 14.2486 11.641 14.3438 11.7978 14.4088C11.9546 14.4737 12.1226 14.5071 12.2923 14.5071H12.7609V16.0481H12.2923C11.9496 16.0481 11.6209 16.1843 11.3785 16.4266C11.1362 16.669 11 16.9977 11 17.3404C11 17.6832 11.1362 18.0119 11.3785 18.2542C11.6209 18.4966 11.9496 18.6327 12.2923 18.6327H12.7609V20.1737H12.2923C11.9496 20.1737 11.6209 20.3099 11.3785 20.5522C11.1362 20.7946 11 21.1233 11 21.466C11 21.8088 11.1362 22.1375 11.3785 22.3799C11.6209 22.6222 11.9496 22.7584 12.2923 22.7584H12.7609V24.2993H12.2923C11.9496 24.2993 11.6209 24.4355 11.3785 24.6779C11.1362 24.9202 11 25.2489 11 25.5917C11 25.9344 11.1362 26.2631 11.3785 26.5055C11.6209 26.7478 11.9496 26.884 12.2923 26.884H12.7609V29.3542C12.761 29.4741 12.8087 29.5891 12.8935 29.6739C12.9783 29.7587 13.0933 29.8064 13.2132 29.8065H27.8724C27.9923 29.8065 28.1074 29.7588 28.1922 29.674C28.277 29.5892 28.3247 29.4741 28.3247 29.3542V28.1588H30.5475C30.6317 28.1588 30.7143 28.1353 30.786 28.0909C30.8576 28.0465 30.9154 27.983 30.9529 27.9075C30.9903 27.832 31.0059 27.7476 30.998 27.6637C30.99 27.5798 30.9588 27.4998 30.9078 27.4327L29.7773 25.9458ZM11.9046 13.2148C11.9046 13.112 11.9455 13.0134 12.0182 12.9407C12.0909 12.8679 12.1895 12.8271 12.2923 12.8271H14.1339C14.2367 12.8271 14.3353 12.8679 14.408 12.9407C14.4807 13.0134 14.5216 13.112 14.5216 13.2148C14.5216 13.3176 14.4807 13.4162 14.408 13.4889C14.3353 13.5616 14.2367 13.6025 14.1339 13.6025H12.2923C12.1895 13.6025 12.0909 13.5616 12.0182 13.4889C11.9455 13.4162 11.9046 13.3176 11.9046 13.2148ZM11.9046 17.3404C11.9046 17.2376 11.9455 17.139 12.0182 17.0663C12.0909 16.9936 12.1895 16.9527 12.2923 16.9527H14.1339C14.2367 16.9527 14.3353 16.9936 14.408 17.0663C14.4807 17.139 14.5216 17.2376 14.5216 17.3404C14.5216 17.4432 14.4807 17.5419 14.408 17.6146C14.3353 17.6873 14.2367 17.7281 14.1339 17.7281H12.2923C12.1895 17.7281 12.0909 17.6873 12.0182 17.6146C11.9455 17.5419 11.9046 17.4432 11.9046 17.3404ZM11.9046 21.466C11.9046 21.3632 11.9455 21.2646 12.0182 21.1919C12.0909 21.1192 12.1895 21.0784 12.2923 21.0784H14.1339C14.2367 21.0784 14.3353 21.1192 14.408 21.1919C14.4807 21.2646 14.5216 21.3632 14.5216 21.466C14.5216 21.5689 14.4807 21.6675 14.408 21.7402C14.3353 21.8129 14.2367 21.8537 14.1339 21.8537H12.2923C12.1895 21.8537 12.0909 21.8129 12.0182 21.7402C11.9455 21.6675 11.9046 21.5689 11.9046 21.466ZM11.9046 25.5917C11.9046 25.4888 11.9455 25.3902 12.0182 25.3175C12.0909 25.2448 12.1895 25.204 12.2923 25.204H14.1339C14.2367 25.204 14.3353 25.2448 14.408 25.3175C14.4807 25.3902 14.5216 25.4888 14.5216 25.5917C14.5216 25.6945 14.4807 25.7931 14.408 25.8658C14.3353 25.9385 14.2367 25.9794 14.1339 25.9794H12.2923C12.1895 25.9794 12.0909 25.9385 12.0182 25.8658C11.9455 25.7931 11.9046 25.6945 11.9046 25.5917ZM27.42 28.9018H13.6656V26.884H14.1339C14.4766 26.884 14.8053 26.7478 15.0477 26.5055C15.2901 26.2631 15.4262 25.9344 15.4262 25.5917C15.4262 25.2489 15.2901 24.9202 15.0477 24.6779C14.8053 24.4355 14.4766 24.2993 14.1339 24.2993H13.6656V22.7584H14.1339C14.4766 22.7584 14.8053 22.6222 15.0477 22.3799C15.2901 22.1375 15.4262 21.8088 15.4262 21.466C15.4262 21.1233 15.2901 20.7946 15.0477 20.5522C14.8053 20.3099 14.4766 20.1737 14.1339 20.1737H13.6656V18.6327H14.1339C14.4766 18.6327 14.8053 18.4966 15.0477 18.2542C15.2901 18.0119 15.4262 17.6832 15.4262 17.3404C15.4262 16.9977 15.2901 16.669 15.0477 16.4266C14.8053 16.1843 14.4766 16.0481 14.1339 16.0481H13.6656V14.5071H14.1339C14.4766 14.5071 14.8053 14.371 15.0477 14.1286C15.2901 13.8863 15.4262 13.5575 15.4262 13.2148C15.4262 12.872 15.2901 12.5433 15.0477 12.301C14.8053 12.0586 14.4766 11.9225 14.1339 11.9225H13.6656V9.90463H27.42V28.9018ZM28.8491 26.2192L29.6351 27.2531H28.3247V24.6372H29.6351L28.8491 25.671C28.7891 25.7498 28.7567 25.8461 28.7567 25.9451C28.7567 26.0441 28.7891 26.1404 28.8491 26.2192Z" fill="#1273EB"/>
</svg>
