<svg width="47" height="30" viewBox="0 0 47 30" fill="none" xmlns="http://www.w3.org/2000/svg">
<path d="M46.9988 25.0685C46.9988 21.5289 44.4597 18.5106 40.9105 17.3471C41.4706 16.6739 41.905 15.8829 42.1866 15.122C42.6677 14.8347 43.0451 14.3168 43.1954 13.7142C43.3323 13.1662 43.6354 11.9661 42.9882 11.3115V10.7725C43.0149 9.84732 43.0884 7.44244 41.0782 6.40319C41.026 6.21009 41.0126 6.05822 41.0092 6.02599L40.7553 3.45467L38.9045 5.19409C38.6873 5.36053 37.4557 5.66211 36.2963 5.77865L35.8208 5.8518C32.2817 6.40629 32.3386 8.44078 32.3831 10.0779C32.3896 10.2865 32.3965 10.5072 32.3965 10.7545L32.412 11.2393C32.0558 11.6308 31.8028 12.3486 32.1314 13.6851C32.2817 14.283 32.6681 14.7987 33.1402 15.0529C33.3583 15.6108 33.7905 16.5316 34.4632 17.3536C32.9622 17.8449 31.6459 18.6693 30.6247 19.7263C29.6726 19.1194 28.6158 18.6371 27.4866 18.2875C28.3218 17.3425 28.9531 16.1854 29.3552 15.086C29.9809 14.7355 30.4775 14.0679 30.6782 13.2812C30.8553 12.568 31.2529 10.9873 30.3954 10.1963V9.38767C30.4523 7.48522 30.2429 4.85067 27.8675 3.67721C27.7695 3.34774 27.7517 3.09048 27.7496 3.06165L27.4468 0L25.2397 2.07106C24.9768 2.30941 23.2875 2.73218 21.6616 2.89428L21.0256 2.99409C16.4543 3.71068 16.5234 6.23086 16.5878 8.55143C16.5956 8.80559 16.6024 9.06935 16.6024 9.36349L16.6248 10.0878C16.1572 10.5559 15.8065 11.4656 16.2418 13.2403C16.4357 14.018 16.9466 14.6847 17.5593 14.9862C17.8598 15.7605 18.4881 17.1339 19.5037 18.2906C18.3745 18.6356 17.3234 19.1203 16.3712 19.7247C15.3466 18.6631 14.0248 17.8402 12.5203 17.3477C13.0794 16.672 13.5135 15.8835 13.7964 15.1204C14.2818 14.8344 14.6505 14.3239 14.8064 13.7105C14.9433 13.1625 15.243 11.9646 14.5992 11.31V10.771C14.6259 9.84577 14.6984 7.44089 12.6883 6.40164C12.636 6.20854 12.6236 6.05667 12.6205 6.02444L12.3653 3.45312L10.5145 5.19254C10.2973 5.35898 9.0645 5.66056 7.90635 5.7771L7.43183 5.85025C3.89172 6.40474 3.9496 8.43923 3.99409 10.0754C4.00063 10.284 4.00623 10.5047 4.00623 10.7533L4.02179 11.2368C3.66551 11.6273 3.41377 12.3461 3.74236 13.6826C3.89172 14.2805 4.27912 14.7962 4.75022 15.0513C4.96959 15.6071 5.4018 16.5301 6.07329 17.3496C2.53349 18.5184 0 21.5323 0 25.0673V25.6218H11.6994C11.4088 26.5469 11.2408 27.5152 11.2408 28.5225V29.077H35.758V28.5225C35.758 27.5152 35.5909 26.5469 35.2993 25.6218H47V25.0682H46.9988V25.0685ZM42.5865 24.514V22.9612C42.5865 22.6562 42.336 22.4067 42.0298 22.4067C41.7236 22.4067 41.4731 22.6562 41.4731 22.9612V24.514H34.8761C34.6045 23.9118 34.2694 23.3371 33.8817 22.7935C33.8216 22.707 33.7668 22.6184 33.7058 22.5362C33.0991 21.7297 32.3685 21.0045 31.5467 20.37C32.0645 19.8564 32.6638 19.4082 33.3306 19.0444L37.2827 23.5135C37.3897 23.6322 37.54 23.7019 37.7003 23.7019C37.8761 23.693 38.0176 23.6331 38.1247 23.5067L41.9921 19.0041C44.156 20.1698 45.6558 22.1844 45.8643 24.5137L42.5865 24.514ZM34.6253 27.9693H29.8536V25.703C29.8536 25.6754 29.8424 25.6509 29.8368 25.623C29.7967 25.3567 29.5773 25.1482 29.2967 25.1482C29.0182 25.1482 28.7966 25.3567 28.7565 25.623C28.7531 25.6506 28.7397 25.6751 28.7397 25.703V27.9693H18.2532V25.703C18.2532 25.6754 18.241 25.6509 18.2364 25.623C18.1962 25.3567 17.9759 25.1482 17.6962 25.1482C17.4164 25.1482 17.1952 25.3567 17.1551 25.623C17.1516 25.6506 17.1395 25.6751 17.1395 25.703V27.9693H12.3687C12.421 27.1551 12.6003 26.3731 12.8697 25.6233C12.9366 25.437 13.0045 25.2507 13.0847 25.0688H13.1015C13.0994 25.0598 13.0981 25.0533 13.0959 25.0456C13.175 24.868 13.2587 24.6907 13.3498 24.5143C13.5904 24.0528 13.8745 23.6148 14.1906 23.1955C14.7473 22.4566 15.4144 21.7911 16.174 21.2109C16.3221 21.0978 16.4658 20.9834 16.6205 20.8749C16.772 20.7708 16.9323 20.6775 17.0894 20.582C17.2898 20.459 17.4914 20.339 17.7008 20.2293L23.0852 26.3191C23.191 26.4378 23.3426 26.5054 23.5028 26.5054C23.504 26.5054 23.505 26.5054 23.5062 26.5054C23.669 26.5054 23.8202 26.4344 23.926 26.3123L29.1955 20.1794C29.4395 20.3046 29.6744 20.4388 29.905 20.582C30.0631 20.6775 30.2224 20.7705 30.3748 20.8749C30.5295 20.9837 30.6745 21.0978 30.8204 21.2109C31.58 21.7911 32.2459 22.4566 32.8025 23.1955C33.1187 23.6183 33.404 24.0528 33.6446 24.5143C33.7348 24.6873 33.8182 24.8649 33.8985 25.0456C33.8963 25.0567 33.8941 25.0632 33.8941 25.0688H33.9109C33.9899 25.2507 34.059 25.437 34.1247 25.6233C34.3926 26.3731 34.5709 27.1551 34.6253 27.9693ZM4.96212 22.4064C4.65469 22.4064 4.40545 22.6537 4.40545 22.9609V24.5137H1.13357C1.33863 22.2108 2.80514 20.2132 4.92976 19.0407L8.88527 23.5098C8.99107 23.6285 9.14261 23.6982 9.30285 23.6982C9.41861 23.6892 9.619 23.6294 9.72604 23.503L13.5926 19.0004C14.2864 19.3754 14.9122 19.8344 15.4477 20.3647C14.6259 20.9992 13.8944 21.7257 13.2885 22.531C13.2251 22.6131 13.1715 22.7017 13.1103 22.7882C12.725 23.3294 12.3908 23.9062 12.117 24.5087H5.52004V22.9559C5.51911 22.6525 5.2708 22.4064 4.96212 22.4064ZM5.61152 14.1891L5.34423 14.1091C5.15722 14.0524 4.90767 13.7774 4.81868 13.4179C4.59713 12.5129 4.70946 12.0634 4.88869 11.9447L5.14696 11.7739L5.11459 10.7378C5.11459 10.4948 5.10899 10.263 5.10246 10.0466C5.05672 8.42157 5.02778 7.35101 7.60017 6.94839L8.04233 6.87741C8.06785 6.87524 10.6169 6.61674 11.2651 6.00987L11.4745 5.81119L11.5046 6.12052C11.5124 6.22249 11.5482 6.58637 11.7063 6.99798L11.7897 7.21649L12.0047 7.30979C13.095 7.77998 13.5369 8.80497 13.478 10.7561V11.902L13.7621 12.0628C13.8244 12.0972 14.0039 12.299 13.7176 13.4427C13.6265 13.8022 13.3947 14.106 13.1264 14.2157L12.8915 14.3112L12.8112 14.552C12.5162 15.4183 11.9994 16.3547 11.3046 17.0279C11.1219 17.2055 10.9271 17.3617 10.7199 17.4937C10.3157 17.7531 9.86793 17.9208 9.37784 17.9351C9.36571 17.9351 9.35451 17.9394 9.34331 17.9394C9.32775 17.9394 9.31312 17.9372 9.29663 17.9372C9.28201 17.9372 9.26987 17.9394 9.25556 17.9394C9.21448 17.9394 9.1787 17.9217 9.13856 17.9196C8.6575 17.8895 8.22436 17.7398 7.84785 17.4946C7.63969 17.3604 7.44925 17.2017 7.27096 17.0288C6.40001 16.1746 5.89126 14.9534 5.70643 14.4463L5.61152 14.1891ZM10.1327 21.3268L9.64607 19.4225L10.2317 18.9201C10.7361 18.7837 11.196 18.5429 11.6092 18.2289C11.9278 18.311 12.2349 18.413 12.5358 18.5283L10.1327 21.3268ZM8.24397 18.8987L8.85758 19.4234L8.38648 21.2692L5.98772 18.5571C6.30635 18.4341 6.63245 18.321 6.97224 18.2345C7.34657 18.5218 7.76851 18.7536 8.24397 18.8987ZM18.4181 14.1181L18.1508 14.0381C17.8524 13.9473 17.4594 13.5478 17.3178 12.9787C17.0415 11.8539 17.1062 11.0608 17.4914 10.8078L17.7488 10.638L17.7108 9.34893C17.7108 9.06036 17.703 8.78544 17.694 8.42838C17.6327 6.23768 17.5882 4.66036 21.1952 4.0944L21.7998 3.99893C21.8331 3.99335 25.1909 3.64404 25.9993 2.88188L26.5606 2.35715L26.6375 3.15464C26.6452 3.24545 26.6854 3.73021 26.8957 4.28067L26.9791 4.49795L27.1929 4.59124C29.1296 5.42531 29.3343 7.46972 29.2777 9.37434V10.7998L29.5627 10.9619C29.8789 11.1395 29.8913 11.8304 29.5916 13.0175C29.4557 13.5534 29.1016 14.0115 28.6874 14.181L28.4525 14.2765L28.3722 14.5173C27.9612 15.732 27.2252 17.0474 26.2342 17.9769C26.0559 18.1434 25.8711 18.2952 25.675 18.4338C25.4189 18.6157 25.1448 18.7654 24.862 18.8841C24.5222 19.0252 24.1681 19.116 23.7928 19.1482C23.6904 19.1572 23.5958 19.1869 23.491 19.1869C23.3429 19.1869 23.2003 19.1693 23.0588 19.1547C22.7112 19.1113 22.3839 19.0205 22.0764 18.8906C21.7923 18.7698 21.5275 18.6154 21.278 18.4381C21.0832 18.2971 20.8949 18.1474 20.7213 17.9834C19.4807 16.8066 18.766 15.0916 18.5086 14.3849L18.4181 14.1181ZM24.6697 23.7407L23.9615 20.9676L24.9469 20.1267L24.8813 20.07C25.488 19.8769 26.045 19.5676 26.5494 19.1727C27.0995 19.3091 27.6307 19.4867 28.1441 19.6953L24.6697 23.7407ZM22.0161 20.0446L21.9215 20.1267L22.9047 20.9676L22.2186 23.6607L18.7488 19.7374C19.2878 19.5167 19.8469 19.3258 20.4304 19.1761C20.899 19.5465 21.428 19.8493 22.0161 20.0446ZM34.0086 14.1891L33.7413 14.1091C33.5531 14.0502 33.3038 13.7774 33.2145 13.4179C32.993 12.5129 33.1053 12.0634 33.2836 11.9447L33.5419 11.7739L33.5095 10.7378C33.5095 10.4948 33.5039 10.263 33.4974 10.0444C33.4529 8.42156 33.4249 7.35132 35.9951 6.94839L36.4382 6.87741C36.4615 6.87524 39.0106 6.61674 39.6587 6.00987L39.8681 5.81119L39.8983 6.12052C39.9061 6.22249 39.9419 6.5842 40.0987 6.99798L40.1821 7.21649L40.398 7.30979C41.4884 7.77998 41.9302 8.80497 41.8702 10.7561V11.902L42.1552 12.0628C42.2174 12.0972 42.3979 12.299 42.1094 13.4427C42.0183 13.8022 41.7877 14.106 41.5192 14.2157L41.2842 14.3112L41.204 14.552C40.909 15.4183 40.3921 16.3547 39.6973 17.0279C39.5147 17.2055 39.3186 17.3617 39.1126 17.4937C38.7084 17.7531 38.2597 17.9208 37.7706 17.9351L37.7771 17.9416C37.7637 17.9416 37.7516 17.9394 37.7382 17.9394C37.7205 17.9394 37.7071 17.9372 37.6903 17.9372C37.6757 17.9372 37.6635 17.9394 37.6492 17.9394C37.6082 17.9394 37.5724 17.9217 37.5322 17.9196C37.0512 17.8895 36.619 17.7398 36.2406 17.4946C36.0334 17.3604 35.8429 17.2017 35.6649 17.0288C34.7931 16.1746 34.2852 14.9534 34.1004 14.4463L34.0086 14.1891ZM38.5273 21.3268L38.0407 19.4222L38.6263 18.9198C39.1307 18.7812 39.5896 18.5426 40.005 18.2286C40.3212 18.3107 40.6308 18.4127 40.9292 18.528L38.5273 21.3268ZM36.6411 18.8987L37.2534 19.4234L36.7823 21.2692L34.3836 18.5571C34.7022 18.4341 35.0283 18.321 35.3681 18.2345C35.7412 18.5218 36.1656 18.7558 36.6411 18.8987Z" fill="#5D60F0"/>
</svg>
