<svg width="39" height="39" viewBox="0 0 39 39" fill="none" xmlns="http://www.w3.org/2000/svg">
<rect width="39" height="39" rx="19.5" fill="#CCF9FF" fill-opacity="0.8"/>
<path d="M20.001 18.0331C19.9407 18.0331 19.8817 18.039 19.8245 18.0496L16.8748 12.9407C16.7859 12.7866 16.5887 12.7338 16.4346 12.8227C16.2805 12.9117 16.2277 13.1088 16.3167 13.263L19.2666 18.3723C19.1219 18.5413 19.0342 18.7605 19.0342 18.9999C19.0342 19.42 19.3037 19.7782 19.6788 19.9113V27.0995C19.6788 27.2776 19.823 27.4218 20.001 27.4218C20.179 27.4218 20.3233 27.2776 20.3233 27.0995V19.9113C20.6984 19.7783 20.9678 19.42 20.9678 18.9999C20.9678 18.4669 20.5341 18.0331 20.001 18.0331ZM20.001 19.3222C19.8233 19.3222 19.6788 19.1777 19.6788 18.9999C19.6788 18.8222 19.8233 18.6777 20.001 18.6777C20.1787 18.6777 20.3233 18.8222 20.3233 18.9999C20.3233 19.1777 20.1787 19.3222 20.001 19.3222Z" fill="#1273EB"/>
<path d="M27.7782 11.2218C25.7006 9.14421 22.9382 8 20 8C17.0618 8 14.2994 9.14421 12.2218 11.2218C10.1442 13.2994 9 16.0618 9 19C9 21.9382 10.1442 24.7006 12.2218 26.7782C14.2994 28.8558 17.0618 30 20 30C22.9382 30 25.7006 28.8558 27.7782 26.7782C29.8558 24.7006 31 21.9382 31 19C31 16.0618 29.8558 13.2994 27.7782 11.2218ZM20 29.3555C14.29 29.3555 9.64453 24.71 9.64453 19C9.64453 13.29 14.29 8.64453 20 8.64453C25.71 8.64453 30.3555 13.29 30.3555 19C30.3555 24.71 25.71 29.3555 20 29.3555Z" fill="#1273EB"/>
<path d="M20 11.2227C20.178 11.2227 20.3223 11.0784 20.3223 10.9004C20.3223 10.7224 20.178 10.5781 20 10.5781C19.822 10.5781 19.6777 10.7224 19.6777 10.9004C19.6777 11.0784 19.822 11.2227 20 11.2227Z" fill="#1273EB"/>
<path d="M15.9512 12.3076C16.1292 12.3076 16.2734 12.1633 16.2734 11.9854C16.2734 11.8074 16.1292 11.6631 15.9512 11.6631C15.7732 11.6631 15.6289 11.8074 15.6289 11.9854C15.6289 12.1633 15.7732 12.3076 15.9512 12.3076Z" fill="#1273EB"/>
<path d="M12.9863 15.2725C13.1643 15.2725 13.3086 15.1282 13.3086 14.9502C13.3086 14.7722 13.1643 14.6279 12.9863 14.6279C12.8083 14.6279 12.6641 14.7722 12.6641 14.9502C12.6641 15.1282 12.8083 15.2725 12.9863 15.2725Z" fill="#1273EB"/>
<path d="M11.9004 19.3223C12.0784 19.3223 12.2227 19.178 12.2227 19C12.2227 18.822 12.0784 18.6777 11.9004 18.6777C11.7224 18.6777 11.5781 18.822 11.5781 19C11.5781 19.178 11.7224 19.3223 11.9004 19.3223Z" fill="#1273EB"/>
<path d="M12.9863 23.3721C13.1643 23.3721 13.3086 23.2278 13.3086 23.0498C13.3086 22.8718 13.1643 22.7275 12.9863 22.7275C12.8083 22.7275 12.6641 22.8718 12.6641 23.0498C12.6641 23.2278 12.8083 23.3721 12.9863 23.3721Z" fill="#1273EB"/>
<path d="M15.9512 26.3369C16.1292 26.3369 16.2734 26.1926 16.2734 26.0146C16.2734 25.8367 16.1292 25.6924 15.9512 25.6924C15.7732 25.6924 15.6289 25.8367 15.6289 26.0146C15.6289 26.1926 15.7732 26.3369 15.9512 26.3369Z" fill="#1273EB"/>
<path d="M24.0488 26.3369C24.2268 26.3369 24.3711 26.1926 24.3711 26.0146C24.3711 25.8367 24.2268 25.6924 24.0488 25.6924C23.8708 25.6924 23.7266 25.8367 23.7266 26.0146C23.7266 26.1926 23.8708 26.3369 24.0488 26.3369Z" fill="#1273EB"/>
<path d="M27.0137 23.3721C27.1917 23.3721 27.3359 23.2278 27.3359 23.0498C27.3359 22.8718 27.1917 22.7275 27.0137 22.7275C26.8357 22.7275 26.6914 22.8718 26.6914 23.0498C26.6914 23.2278 26.8357 23.3721 27.0137 23.3721Z" fill="#1273EB"/>
<path d="M28.0996 19.3223C28.2776 19.3223 28.4219 19.178 28.4219 19C28.4219 18.822 28.2776 18.6777 28.0996 18.6777C27.9216 18.6777 27.7773 18.822 27.7773 19C27.7773 19.178 27.9216 19.3223 28.0996 19.3223Z" fill="#1273EB"/>
<path d="M27.0137 15.2725C27.1917 15.2725 27.3359 15.1282 27.3359 14.9502C27.3359 14.7722 27.1917 14.6279 27.0137 14.6279C26.8357 14.6279 26.6914 14.7722 26.6914 14.9502C26.6914 15.1282 26.8357 15.2725 27.0137 15.2725Z" fill="#1273EB"/>
<path d="M24.0488 12.3076C24.2268 12.3076 24.3711 12.1633 24.3711 11.9854C24.3711 11.8074 24.2268 11.6631 24.0488 11.6631C23.8708 11.6631 23.7266 11.8074 23.7266 11.9854C23.7266 12.1633 23.8708 12.3076 24.0488 12.3076Z" fill="#1273EB"/>
<path d="M26.8667 12.1333C25.0325 10.2992 22.5939 9.28906 20 9.28906C17.6534 9.28906 15.3879 10.1376 13.6209 11.6783C13.4868 11.7953 13.4729 11.9988 13.5898 12.133C13.7068 12.2672 13.9104 12.2811 14.0445 12.1641C15.6941 10.7258 17.8092 9.93359 20 9.93359C24.9992 9.93359 29.0664 14.0008 29.0664 19C29.0664 23.9992 24.9992 28.0664 20 28.0664C15.0008 28.0664 10.9336 23.9992 10.9336 19C10.9336 16.8092 11.7258 14.6941 13.1641 13.0445C13.2811 12.9103 13.2671 12.7068 13.133 12.5898C12.9989 12.4728 12.7953 12.4867 12.6783 12.6209C11.1376 14.3879 10.2891 16.6534 10.2891 19C10.2891 21.5939 11.2992 24.0325 13.1333 25.8667C14.9675 27.7008 17.4061 28.7109 20 28.7109C22.5939 28.7109 25.0325 27.7008 26.8667 25.8667C28.7008 24.0325 29.7109 21.5939 29.7109 19C29.7109 16.4061 28.7008 13.9675 26.8667 12.1333Z" fill="#1273EB"/>
</svg>
