<svg width="29" height="30" viewBox="0 0 29 30" fill="none" xmlns="http://www.w3.org/2000/svg">
<path d="M18.8982 4.11377H9.43802C9.26914 4.11377 9.10718 4.18086 8.98777 4.30027C8.86835 4.41968 8.80127 4.58164 8.80127 4.75052V9.25977C8.80137 9.42861 8.86848 9.59052 8.98787 9.70991C9.10727 9.8293 9.26917 9.89642 9.43802 9.89651H18.8982C19.0671 9.89651 19.2291 9.82943 19.3485 9.71001C19.4679 9.5906 19.535 9.42864 19.535 9.25977V4.75052C19.535 4.66688 19.5186 4.58406 19.4866 4.50679C19.4546 4.42951 19.4077 4.3593 19.3486 4.30016C19.2895 4.24103 19.2192 4.19412 19.142 4.16214C19.0647 4.13016 18.9819 4.11372 18.8982 4.11377ZM18.2615 8.62157H10.0748V5.38726H18.2615V8.62157Z" fill="#5D60F0"/>
<path d="M26.4337 23.8554L28.0237 21.7618C28.0955 21.6673 28.1395 21.5547 28.1507 21.4366C28.1619 21.3185 28.1399 21.1997 28.0872 21.0934C28.0344 20.9872 27.9531 20.8977 27.8522 20.8352C27.7514 20.7727 27.6351 20.7397 27.5165 20.7397H24.3874V0.636746C24.3874 0.46787 24.3203 0.305912 24.2009 0.186499C24.0815 0.0670857 23.9195 0 23.7506 0H3.11569C2.94684 9.64008e-05 2.78494 0.0672128 2.66555 0.186605C2.54615 0.305997 2.47904 0.4679 2.47894 0.636746V4.11411H1.81927C1.58036 4.11411 1.34379 4.16116 1.12307 4.25259C0.902343 4.34402 0.701788 4.47802 0.532853 4.64696C0.363918 4.81589 0.229911 5.01645 0.138484 5.23717C0.0470567 5.4579 0 5.69447 0 5.93338C0 6.17229 0.0470567 6.40886 0.138484 6.62958C0.229911 6.85031 0.363918 7.05086 0.532853 7.2198C0.701788 7.38873 0.902343 7.52274 1.12307 7.61417C1.34379 7.7056 1.58036 7.75265 1.81927 7.75265H2.47894V9.92196H1.81927C1.33677 9.92196 0.874033 10.1136 0.532853 10.4548C0.191673 10.796 0 11.2587 0 11.7412C0 12.2237 0.191673 12.6865 0.532853 13.0276C0.874033 13.3688 1.33677 13.5605 1.81927 13.5605H2.47894V15.7298H1.81927C1.33677 15.7298 0.874033 15.9215 0.532853 16.2627C0.191673 16.6038 0 17.0666 0 17.5491C0 18.0316 0.191673 18.4943 0.532853 18.8355C0.874033 19.1767 1.33677 19.3684 1.81927 19.3684H2.47894V21.5377H1.81927C1.33677 21.5377 0.874033 21.7293 0.532853 22.0705C0.191673 22.4117 0 22.8744 0 23.3569C0 23.8394 0.191673 24.3022 0.532853 24.6433C0.874033 24.9845 1.33677 25.1762 1.81927 25.1762H2.47894V28.6536C2.47904 28.8224 2.54615 28.9843 2.66555 29.1037C2.78494 29.2231 2.94684 29.2902 3.11569 29.2903H23.7521C23.921 29.2903 24.0829 29.2232 24.2023 29.1038C24.3217 28.9844 24.3888 28.8224 24.3888 28.6536V26.9707H27.518C27.6366 26.9708 27.7529 26.9377 27.8537 26.8752C27.9545 26.8127 28.0359 26.7233 28.0886 26.617C28.1414 26.5108 28.1634 26.3919 28.1522 26.2738C28.1409 26.1557 28.097 26.0431 28.0252 25.9487L26.4337 23.8554ZM1.27349 5.93338C1.27349 5.78863 1.33099 5.64981 1.43335 5.54745C1.5357 5.4451 1.67452 5.3876 1.81927 5.3876H4.41174C4.55649 5.3876 4.69531 5.4451 4.79767 5.54745C4.90002 5.64981 4.95752 5.78863 4.95752 5.93338C4.95752 6.07813 4.90002 6.21695 4.79767 6.31931C4.69531 6.42166 4.55649 6.47916 4.41174 6.47916H1.81927C1.67452 6.47916 1.5357 6.42166 1.43335 6.31931C1.33099 6.21695 1.27349 6.07813 1.27349 5.93338ZM1.27349 11.7412C1.27349 11.5965 1.33099 11.4577 1.43335 11.3553C1.5357 11.2529 1.67452 11.1954 1.81927 11.1954H4.41174C4.55649 11.1954 4.69531 11.2529 4.79767 11.3553C4.90002 11.4577 4.95752 11.5965 4.95752 11.7412C4.95752 11.886 4.90002 12.0248 4.79767 12.1272C4.69531 12.2295 4.55649 12.287 4.41174 12.287H1.81927C1.67452 12.287 1.5357 12.2295 1.43335 12.1272C1.33099 12.0248 1.27349 11.886 1.27349 11.7412ZM1.27349 17.5491C1.27349 17.4043 1.33099 17.2655 1.43335 17.1632C1.5357 17.0608 1.67452 17.0033 1.81927 17.0033H4.41174C4.55649 17.0033 4.69531 17.0608 4.79767 17.1632C4.90002 17.2655 4.95752 17.4043 4.95752 17.5491C4.95752 17.6938 4.90002 17.8326 4.79767 17.935C4.69531 18.0374 4.55649 18.0949 4.41174 18.0949H1.81927C1.67452 18.0949 1.5357 18.0374 1.43335 17.935C1.33099 17.8326 1.27349 17.6938 1.27349 17.5491ZM1.27349 23.3569C1.27349 23.2122 1.33099 23.0734 1.43335 22.971C1.5357 22.8686 1.67452 22.8111 1.81927 22.8111H4.41174C4.55649 22.8111 4.69531 22.8686 4.79767 22.971C4.90002 23.0734 4.95752 23.2122 4.95752 23.3569C4.95752 23.5017 4.90002 23.6405 4.79767 23.7429C4.69531 23.8452 4.55649 23.9027 4.41174 23.9027H1.81927C1.67452 23.9027 1.5357 23.8452 1.43335 23.7429C1.33099 23.6405 1.27349 23.5017 1.27349 23.3569ZM23.1153 28.0168H3.75243V25.1762H4.41174C4.89424 25.1762 5.35698 24.9845 5.69816 24.6433C6.03934 24.3022 6.23101 23.8394 6.23101 23.3569C6.23101 22.8744 6.03934 22.4117 5.69816 22.0705C5.35698 21.7293 4.89424 21.5377 4.41174 21.5377H3.75243V19.3684H4.41174C4.89424 19.3684 5.35698 19.1767 5.69816 18.8355C6.03934 18.4943 6.23101 18.0316 6.23101 17.5491C6.23101 17.0666 6.03934 16.6038 5.69816 16.2627C5.35698 15.9215 4.89424 15.7298 4.41174 15.7298H3.75243V13.5605H4.41174C4.89424 13.5605 5.35698 13.3688 5.69816 13.0276C6.03934 12.6865 6.23101 12.2237 6.23101 11.7412C6.23101 11.2587 6.03934 10.796 5.69816 10.4548C5.35698 10.1136 4.89424 9.92196 4.41174 9.92196H3.75243V7.75265H4.41174C4.89424 7.75265 5.35698 7.56098 5.69816 7.2198C6.03934 6.87862 6.23101 6.41588 6.23101 5.93338C6.23101 5.45088 6.03934 4.98814 5.69816 4.64696C5.35698 4.30578 4.89424 4.11411 4.41174 4.11411H3.75243V1.27349H23.1153V28.0168ZM25.1271 24.2404L26.2336 25.6958H24.3888V22.0132H26.2336L25.1271 23.4686C25.0427 23.5796 24.9969 23.7151 24.9969 23.8545C24.9969 23.9939 25.0427 24.1294 25.1271 24.2404Z" fill="#5D60F0"/>
</svg>
