<svg width="26" height="26" viewBox="0 0 26 26" fill="none" xmlns="http://www.w3.org/2000/svg">
<path d="M23.2143 2.78571H20.4286V0.928589C20.4286 0.415735 20.0128 0 19.5 0C18.9871 0 18.5714 0.415735 18.5714 0.928589V2.78571H7.42855V0.928589C7.42855 0.415735 7.01281 0 6.50001 0C5.98721 0 5.57142 0.415735 5.57142 0.928589V2.78571H2.78571C1.2472 2.78571 0 4.03292 0 5.57142V23.2143C0 24.7528 1.2472 26 2.78571 26H23.2143C24.7528 26 26 24.7528 26 23.2143V5.57142C26 4.03292 24.7528 2.78571 23.2143 2.78571ZM24.1428 23.2143C24.1428 23.7271 23.7271 24.1429 23.2142 24.1429H2.78571C2.27286 24.1429 1.85712 23.7271 1.85712 23.2143V11.1428H24.1428V23.2143ZM24.1428 9.28573H1.85712V5.57142C1.85712 5.05857 2.27286 4.64284 2.78571 4.64284H5.57142V6.49996C5.57142 7.01281 5.98716 7.42855 6.50001 7.42855C7.01287 7.42855 7.4286 7.01281 7.4286 6.49996V4.64284H18.5715V6.49996C18.5715 7.01281 18.9872 7.42855 19.5 7.42855C20.0129 7.42855 20.4286 7.01281 20.4286 6.49996V4.64284H23.2143C23.7272 4.64284 24.1429 5.05857 24.1429 5.57142V9.28573H24.1428Z" fill="#5D60F0"/>
</svg>
