<svg width="29" height="29" viewBox="0 0 29 29" fill="none" xmlns="http://www.w3.org/2000/svg">
<path d="M27.9643 10.3572H26.2108C26.0659 9.94534 25.8993 9.54153 25.7116 9.14743L26.9544 7.90458C27.3588 7.50016 27.3588 6.84451 26.9544 6.4401L22.5558 2.04968C22.1513 1.64533 21.4957 1.64533 21.0913 2.04968L19.8484 3.29254C19.4556 3.10392 19.0532 2.93588 18.6428 2.7892V1.03573C18.6428 0.463704 18.1791 0 17.6071 0H11.3928C10.8208 0 10.3571 0.463704 10.3571 1.03573V2.7892C9.9451 2.93437 9.54092 3.10101 9.14634 3.28841L7.90349 2.04555C7.49901 1.64126 6.84342 1.64126 6.439 2.04555L2.04962 6.44422C1.64527 6.84864 1.64527 7.50429 2.04962 7.9087L3.29248 9.15156C3.10344 9.5442 2.93546 9.94667 2.78914 10.3572H1.03573C0.463704 10.3572 0 10.8209 0 11.3928V17.6071C0 18.1791 0.463704 18.6428 1.03573 18.6428H2.7892C2.93406 19.0547 3.10065 19.4585 3.28841 19.8526L2.04555 21.0954C1.64126 21.4999 1.64126 22.1555 2.04555 22.5599L6.4401 26.9544C6.84457 27.3587 7.50016 27.3587 7.90458 26.9544L9.14743 25.7116C9.54171 25.8989 9.94552 26.0656 10.3572 26.2108V27.9643C10.3572 28.5363 10.8209 29 11.3929 29H17.6072C18.1792 29 18.6429 28.5363 18.6429 27.9643V26.2108C19.0549 26.0656 19.4591 25.899 19.8537 25.7116L21.0965 26.9544C21.501 27.3587 22.1566 27.3587 22.561 26.9544L26.9555 22.5599C27.3598 22.1555 27.3598 21.4998 26.9555 21.0954L25.7127 19.8526C25.9001 19.4585 26.0664 19.0547 26.2109 18.6428H27.9643C28.5363 18.6428 29 18.1791 29 17.6071V11.3928C29 10.8209 28.5363 10.3572 27.9643 10.3572ZM26.9285 16.5714H25.4526C24.9895 16.5714 24.5827 16.8789 24.4563 17.3244C24.2388 18.0978 23.9315 18.843 23.5407 19.5449C23.312 19.9508 23.3824 20.4593 23.7126 20.7878L24.7484 21.8287L21.8235 24.7535L20.7826 23.7178C20.4541 23.3875 19.9456 23.3172 19.5398 23.5459C18.8381 23.9363 18.0931 24.2436 17.3202 24.4615C16.8743 24.5875 16.5664 24.9944 16.5662 25.4578V26.9285H12.4286V25.4526C12.4284 24.9892 12.1205 24.5823 11.6745 24.4563C10.9016 24.2384 10.1568 23.9312 9.45499 23.5407C9.04918 23.312 8.54063 23.3824 8.21214 23.7126L7.1764 24.7484L4.24634 21.8235L5.28214 20.7826C5.61239 20.4541 5.68279 19.9456 5.45406 19.5398C5.06324 18.8379 4.75599 18.0926 4.53849 17.3192C4.41068 16.8776 4.00706 16.5731 3.5473 16.5714H2.07141V12.4286H3.5473C4.0104 12.4286 4.41724 12.1211 4.54365 11.6756C4.76115 10.9022 5.0684 10.157 5.45922 9.45505C5.68795 9.04924 5.61755 8.54069 5.2873 8.2122L4.25156 7.17646L7.1764 4.24641L8.21214 5.28214C8.54063 5.61239 9.04918 5.68279 9.45499 5.45406C10.1567 5.06361 10.9016 4.75635 11.6745 4.53849C12.1186 4.41299 12.4261 4.00876 12.4286 3.5473V2.07141H16.5714V3.5473C16.5716 4.0107 16.8795 4.4176 17.3255 4.54365C18.0984 4.76151 18.8432 5.06877 19.545 5.45922C19.9508 5.68795 20.4594 5.61755 20.7879 5.2873L21.8288 4.25156L24.7536 7.1764L23.7179 8.21214C23.3876 8.54063 23.3172 9.04918 23.5459 9.45499C23.9368 10.1569 24.244 10.9022 24.4615 11.6756C24.5879 12.1211 24.9948 12.4285 25.4579 12.4285H26.9286V16.5714H26.9285Z" fill="#5D60F0"/>
<path d="M14.5 7.25C10.4959 7.25 7.25 10.4959 7.25 14.5C7.25 18.5041 10.496 21.75 14.5 21.75C18.504 21.75 21.75 18.504 21.75 14.5C21.7455 10.4978 18.5022 7.25455 14.5 7.25ZM14.5 19.6786C11.64 19.6786 9.32147 17.36 9.32147 14.5C9.32147 11.64 11.64 9.32147 14.5 9.32147C17.36 9.32147 19.6786 11.64 19.6786 14.5C19.6752 17.3586 17.3586 19.6751 14.5 19.6786Z" fill="#5D60F0"/>
</svg>
