<svg width="39" height="39" viewBox="0 0 39 39" fill="none" xmlns="http://www.w3.org/2000/svg">
<rect width="39" height="39" rx="19.5" fill="#466AF5" fill-opacity="0.07"/>
<path d="M20 29C17.3289 29 14.8177 27.9598 12.9289 26.0711C11.0402 24.1823 10 21.6711 10 19C10 16.3289 11.0402 13.8177 12.9289 11.9289C14.8177 10.0402 17.3289 9 20 9C22.6711 9 25.1823 10.0402 27.0711 11.9289C28.9598 13.8177 30 16.3289 30 19C30 21.6711 28.9598 24.1823 27.0711 26.0711C25.1823 27.9598 22.6711 29 20 29ZM20 10.1719C17.6419 10.1719 15.425 11.0902 13.7576 12.7576C12.0902 14.425 11.1719 16.6419 11.1719 19C11.1719 21.3581 12.0902 23.575 13.7576 25.2424C15.425 26.9098 17.6419 27.8281 20 27.8281C22.3581 27.8281 24.575 26.9098 26.2424 25.2424C27.9098 23.575 28.8281 21.3581 28.8281 19C28.8281 16.6419 27.9098 14.425 26.2424 12.7576C24.575 11.0902 22.3581 10.1719 20 10.1719Z" fill="#533ED1"/>
<path d="M19.4141 11.3452H20.5859V12.9089H19.4141V11.3452Z" fill="black"/>
<path d="M23.8911 14.2796L24.9967 13.1741L25.8252 14.0026L24.7196 15.1082L23.8911 14.2796Z" fill="#05CBE7"/>
<path d="M26.0908 18.4141H27.6546V19.5859H26.0908V18.4141Z" fill="black"/>
<path d="M23.8896 23.7214L24.7182 22.8929L25.8237 23.9985L24.9952 24.827L23.8896 23.7214Z" fill="#05CBE7"/>
<path d="M19.4141 25.0911H20.5859V26.6548H19.4141V25.0911Z" fill="black"/>
<path d="M14.1709 23.9974L15.2765 22.8918L16.105 23.7204L14.9994 24.8259L14.1709 23.9974Z" fill="#05CBE7"/>
<path d="M12.3452 18.4141H13.909V19.5859H12.3452V18.4141Z" fill="black"/>
<path d="M14.1719 14.0015L15.0004 13.173L16.106 14.2786L15.2774 15.1071L14.1719 14.0015Z" fill="#05CBE7"/>
<path d="M24.1364 19.5859H19.4141V14.8636H20.5859V18.4141H24.1364V19.5859Z" fill="#05CBE7"/>
</svg>
